<?xml version="1.0" encoding="utf-8"?>
<!-- Generator: Adobe Illustrator 18.1.1, SVG Export Plug-In . SVG Version: 6.00 Build 0)  -->
<svg version="1.1" id="Laag_1" xmlns="http://www.w3.org/2000/svg" xmlns:xlink="http://www.w3.org/1999/xlink" x="0px" y="0px"
	 viewBox="0 0 9009.4 7778.7" enable-background="new 0 0 9009.4 7778.7" xml:space="preserve">
<g id="_x34_zzYR6.tif">
	<g>
		<path fill="#FFFFFF" d="M238.7,4336.5c59.1-7.8,99.2-39.5,109.2-98.8c20.7-123.7,39.9-247.7,56.4-372
			c30.2-226.9,58.4-454,86.9-681.1c23.5-187.6,46-375.2,69.3-562.8c22.9-184.7,46.5-369.3,69.4-554c3.6-29.3,7.2-58.7,7.6-88.2
			c1.1-80.7-27.6-118.1-107.1-138.5c-31.9-8.2-49.5-23.2-44.5-58.7c4.9-35.1,29.6-34.8,55.9-34.8c211.3,0.2,422.7,0.9,634-0.6
			c38.5-0.3,53.8,15.8,65.1,50.4c60.7,184.7,125.4,368.1,185.6,552.9c62.2,190.6,120.9,382.3,181.1,573.5
			c13.9,44.2,27.7,88.5,51.5,132.8c20-62.5,40-125,60.1-187.5c69.9-217.5,139.8-435,209.5-652.5c22.5-70.1,47.8-139.6,65.2-211
			c21.4-87.9-6.3-136.3-91.4-168.3c-30.1-11.3-30.5-31.6-29-56.2c1.7-27.3,18.5-33.4,42.3-33.4c223.2,0.3,446.3,0.3,669.5,0
			c29.4,0,42.7,14.5,46,42.4c26.5,221.4,52.2,442.9,80.4,664.1c35.2,276.9,72.5,553.5,108.7,830.2c27.4,209.4,54.5,418.8,82,628.2
			c13.7,103.9,27.7,207.8,42,311.7c1.4,10.1,3.4,21.5,9.3,29.2c9.1,12,21.2,28.9,32.8,29.5c10.5,0.6,27.3-15.9,32.1-28.3
			c19.6-50.8,37-102.5,52.9-154.7c76.3-251,153.9-501.6,226.9-753.6c70.6-243.6,136.1-488.6,203.8-733
			c55.4-200.3,110.8-400.7,165.9-601c3.5-12.8,5.1-26.1,7.5-39.1c11.1-62-7.5-120.1-86.9-133.2c-28.6-4.7-50.3-17.8-46.6-52.8
			c3.8-35.7,27.2-39.9,56.9-39.8c220.2,0.6,440.4,0.9,660.6-0.2c33.9-0.2,49.5,11.9,59.1,44.8c69.1,237.8,140.5,474.9,210.4,712.4
			c68.6,233.3,136.4,466.9,204.5,700.4c66.4,227.9,132,456,199.2,683.6c30.9,104.6,63.3,208.7,98,312.1
			c28,83.3,106.6,121.5,173.4,82.7c23.8-13.9,44.7-43.1,53.5-69.8c10.8-32.7,9.9-70,9.9-105.2c0.5-682.8,0.5-1365.6,0-2048.4
			c0-38.3-2.1-77.1-8.8-114.7c-9.4-52.7-36.7-93.8-93.8-104.7c-35.7-6.8-44.4-28.2-40.6-60.7c4.1-34.4,28.8-31.8,52.8-31.8
			c270.5,0,540.9,0,811.4,0c220.2,0,440.4-0.1,660.6,0c59.1,0,65.3,10.3,55.6,68.8c-23.9,144.2-46.1,288.7-67.4,433.3
			c-4.5,30.3-9.1,56-46.2,58.5c-36.7,2.5-47.8-21.3-54.5-51.3c-17.8-79.6-61.4-117.8-142.3-118.4c-189.2-1.4-378.4-0.2-567.5-1
			c-29.4-0.1-43.2,8.9-43.1,40.4c0.4,227.6-0.2,455.2-0.1,682.8c0,6.4,3.7,12.8,7.6,25.6c73.2-112.6,178.2-137.3,298.8-133.6
			c134.4,4.1,269,0.9,403.5,0.9c61.6,0,67.6,9,57.1,71.7c-18,107.8-36.3,215.5-50,323.9c-5.2,41.3-20.5,55.6-61.4,55.3
			c-196.6-1.4-393.1-0.7-589.7-0.7c-64,0-65.4,1.3-65.4,63.4c0,214.3,0.9,428.6-0.8,642.9c-0.3,40.8,11.4,57.7,53.8,61.3
			c203.5,17.2,406.4,25.4,610.6,3.9c117.3-12.3,184.3-73.9,225-176.7c11.7-29.5,18.2-63.7,63.9-59.7c33.5,3,49.7,17.7,44.9,50.8
			c-28.6,198.8-57.2,397.6-88.1,596c-2,12.6-22.5,24.6-36.9,32.1c-9.3,4.9-23.2,1.1-35,1.1c-669.5,0-1339-0.3-2008.5,0.7
			c-42.2,0.1-66.4-6.4-77.6-54.7c-39.6-170.9-84.6-340.6-127.6-510.8c-15.9-62.9-32.1-125.7-48-188.6c-6.6-26.2-20-37.2-50-36.9
			c-193.6,1.7-387.2,1.3-580.8,0.4c-30.9-0.2-46.6,7.2-55.3,40.9c-61.2,237-125.7,473.1-187.4,710c-8.1,31-22.9,39.6-52.4,39.5
			c-305.9-0.6-611.9-0.7-917.8,0.2c-31.7,0.1-45.4-11.7-49.2-42.1c-16.2-130.4-33.6-260.7-50.3-391.1
			c-29.7-231.4-60.5-462.7-88.5-694.3c-25.6-211.1-48.2-422.6-72.1-633.9c-2.1-18.9-4.3-37.7-6.5-56.6c-4.1-0.8-8.3-1.7-12.4-2.5
			c-6.8,26.5-12.1,53.5-20.7,79.4c-48.8,146.7-95.2,294.2-148.4,439.3c-84.7,231-173.2,460.6-261.8,690.2
			c-36.8,95.3-67.9,104.4-163.1,58.6c-102.9-49.5-170.1-134.5-212.5-234.6c-75.9-178.9-143.1-361.5-211.8-543.4
			c-44.8-118.5-86.4-238.1-128-357.8c-11.6-33.3-18.1-68.3-27.3-102.5c-3.2-11.8-7.5-23.3-11.3-35c-3.8,0.2-7.5,0.3-11.3,0.5
			c-2.7,14.9-5.9,29.7-7.9,44.7c-39.8,301.6-80.4,603.1-118.7,904.8c-34.9,275.4-67.4,551.2-100.4,826.9c-3.3,27.9-9.8,49.2-43.7,49
			c-177.3-1.1-354.6-1.9-531.9-2.7C238.7,4389.8,238.7,4363.2,238.7,4336.5z M4018.8,2376.7c-83.4,312.3-164.8,617.6-246.3,922.8
			c63-54.3,124.7-102.2,206.9-107.9c72.1-5,144.6-4.7,216.9-4c34.5,0.4,41.2-11.1,31-42.5c-12.3-37.8-21.3-76.7-31.3-115.2
			c-53.6-207-106.9-414-160.7-620.9C4033,2400,4026.7,2391.8,4018.8,2376.7z"/>
		<path fill="#FFFFFF" d="M4362.5,221.6c46.9,12.2,94.1,23.3,140.5,36.9c211.2,61.7,348.5,275.9,334,510.1
			c-7.3,118.6-26.1,230.5-81.7,335.7c-112.3,212.3-356.4,300.2-573.6,197.3c-71.1-33.7-123.4-41.2-197.7-1.2
			c-127.2,68.4-264.7,65.5-394.2-5.5c-101.2-55.5-108.7-207.3-15.3-277.1c93.4-69.9,197.6-72.6,303.4-38.4
			c72.2,23.3,82.1,21.9,103.9-50.5c26.8-88.7,48.2-179.5,81.4-265.8c24.5-63.7,59.2-125,98.5-181c33.5-47.7,169.5-54.7,213.7-17.2
			c7.4,6.3,9.8,26.3,5.8,36.6c-42.4,111.1-88.6,220.8-129.6,332.3c-30,81.5-52.3,165.8-81.1,247.7c-11.9,33.9-6.5,53.3,25.1,72.3
			c131.7,79.2,250.1,53.6,320.3-81.9c87.9-169.8,97-348.4,23-525.6c-72.3-173-269.2-201.6-419.4-151.9
			c-67.5,22.3-124.9,60-158.9,126c-23.2,45.1-27.9,91.4-18,141.8c3.8,19.1-3,47.4-15.9,61.7c-96.2,106.5-200.7,33.7-235.1-62.6
			c-32.6-91.2,1.3-171.8,57.7-242.7c86.9-109.2,210.1-152.4,341.3-179.1c28.6-5.8,57.1-12,85.7-18
			C4238.3,221.6,4300.4,221.6,4362.5,221.6z M3836.3,1098.6c-1.5,2.4-2.9,4.9-4.4,7.3c-10.3,0.8-20.9,0.4-30.9,2.5
			c-27.2,5.8-54.3,15.1-51.3,49.5c3.1,36.1,30.4,44.4,61.4,41.1c14.2-1.5,31.6-4.1,41.1-13.1c16-15.2,26.9-35.8,40-54.1
			C3873.6,1120.7,3855,1109.7,3836.3,1098.6z"/>
		<path fill="#A68D56" d="M238.7,4451.8c186.1,0.6,372.2,1.5,558.2,1.7c45.6,0.1,45.9-39.9,50.4-67.9c10.5-65.8,13.9-132.7,21.8-199
			c11.9-100.4,25-200.6,37.9-300.8c13-100.4,26.5-200.7,39.6-301.1c6.4-48.9,10.7-98.2,18.7-146.8c10.9-66.3,25.3-132,36.4-198.2
			c7.8-47.1,13.6-94.5,18.5-142c8.4-82.4,14.8-165,23.7-247.4c1.5-13.5,11.4-26,17.4-39c8.9,12.1,19.2,23.3,26.2,36.4
			c8.1,15.1,16.2,31.2,19.1,47.8c14.1,80.8,6.5,160.5-16.6,238.9c-0.8,2.8-1.2,5.8-1.5,8.7c-7.1,69.4-12.5,139-21.8,208.1
			c-10.3,77.1-24.1,153.8-36.4,230.7c-0.5,2.9-0.6,5.9-0.9,8.8c-6.8,82.8-11.3,165.8-21.1,248.2c-8.2,68.4-22.8,136-34.6,204
			c-0.5,2.9-1.2,5.8-1.5,8.7c-6.8,66.3-13.5,132.7-20.5,198.9c-6.6,62.1-7.8,125.5-21.9,185.9c-14,60.1-49.3,99.5-128.5,101.1
			c-168.3,3.3-336.8,1.1-505.1,1.3c-19.2,0-38.3,1-57.5,1.5C238.7,4511,238.7,4481.4,238.7,4451.8z"/>
		<path fill="#FFFFFF" d="M5027.6,6029.7c-69.5,66.9-139.6,133.4-208.5,201c-120.2,117.9-237.6,238.7-360.6,353.6
			c-42.3,39.5-94.9,71.3-147.8,95.7c-152.9,70.4-312.3-32-320.3-201c-5.2-110.5,26.3-213,66.7-313.3
			c86.5-214.7,211.7-408.2,334.4-603c52.5-83.4,103.3-167.9,154.9-251.8c-5.4-1.2-10.8-2.3-16.2-3.5c-3.9-19.8-7.8-39.5-11.7-59.3
			c21.7-3.4,44.7-13.1,64.8-9c40.1,8.3,80.2,20.7,117.4,37.7c127.8,58.3,172.5,158.3,134.6,293.5
			c-30.8,109.8-90.6,204.8-155.7,296.3C4606,5969.8,4526.3,6069,4455,6174c-33.4,49.2-54.3,107.1-78.7,162
			c-4.4,9.9-2.6,29.7,4.3,35.4c7.3,6.1,26.5,5.3,36.3-0.1c38.6-21.4,77.3-43.3,112.7-69.5c203.7-150.6,392.3-318.5,567.1-501.5
			c76.8-80.4,129.1-175.8,152.8-285.1c8.2-38,27.4-50.8,66-44.7c132.2,20.7,210.6,142.4,187.4,288.4
			c-20.8,130.9-80.9,245.6-141.5,360.5c-65.4,123.9-132.4,246.9-195.7,371.9c-15.7,31.1-19.9,68-29.4,102.2
			c5,3.8,10.1,7.6,15.1,11.4c26.2-14.3,56.2-24.3,78-43.6c94-83.1,186.7-167.8,277.8-254c65.4-61.9,125.1-130.1,192.4-189.8
			c34.5-30.6,80.4-48.1,120.4-72.7c7.9-4.9,12.7-15.2,18.2-23.5c132.5-200.8,264.7-401.8,397.7-602.3c19-28.6,34.4-52.3,5.6-86
			c-20.5-23.9-5.3-47.2,20.3-61c6.1-3.3,14.5-4.4,21.5-3.7c106.9,11.6,200.8,52.9,266.8,138.8c59.3,77.2,48.3,164.1,9.6,247.7
			c-18.3,39.5-42.5,76.4-57.5,123.9c23.3-12.6,47.2-24.3,69.8-38.1c119.6-72.9,236.4-150.9,359.1-218.3
			c112.8-62,233.5-111.7,366-101.6c49.1,3.8,100.6,22.9,143.3,48.1c42.1,24.9,77.7,63.6,110.4,101.2
			c89.4,102.7,100.1,221.4,33.6,340.4c-53.1,95-133,165.1-219,228.7c-211.5,156.5-447.7,267.4-688.3,369.9
			c-97.6,41.6-196.4,80.6-293.8,122.6c-26.5,11.5-51.5,27.9-74.8,45.2c-40.2,29.8-88,13.6-89.5-36.7c-1.1-37,7.9-76.3,21-111.3
			c30.9-82.4,88.9-146.8,157.4-199.4c179-137.7,360.4-272.4,540.8-408.4c108.5-81.8,217.3-163.1,324.7-246.3
			c26.6-20.6,50.4-45.9,71.5-72.1c10.6-13.2,12.4-33.6,18.2-50.8c-16.3-5-32.7-14.2-49-14.2c-94,0.3-184,21.6-271.2,56
			c-189.3,74.7-350.3,194.5-508.1,319c-148.9,117.5-265.5,264.5-374.7,417.5c-203.4,285.2-390,580.9-538.7,898.8
			c-27.3,58.3-47.4,120.6-65.1,182.7c-14.1,49.5,3.6,62.5,51.9,47.8c22.6-6.9,46.6-9.4,73.5-14.6c-26.5,112.9-113.3,150-198.2,89.2
			c-103.8-74.4-151.2-177.4-145.8-305.6c7-163.6,56.3-316.9,122.5-463.4c79.4-175.9,170.2-346.5,256.2-519.4
			c6.5-13,13.9-25.5,14.9-42.9c-49.5,56.3-97.4,114.2-149,168.5c-82.3,86.7-162.5,176.3-252.6,254.2c-49.5,42.8-114.4,76-177.8,92.5
			c-99,25.7-206.4-65.5-236.7-186.3c-22.4-89.2-9.9-176.9,22.4-260.6c31-80.4,69.2-158,104.2-236.8
			C5030,6032.8,5028.8,6031.2,5027.6,6029.7z"/>
		<path fill="#FFFFFF" d="M7664.5,4491.9c-211.2-3.8-405.5-35.9-593.8-101.4c-43-15-85-32.9-127.5-49.4c-41.2-16-56.3-39.8-48-88.7
			c26-152.8,45.6-306.6,66-460.3c3.6-26.8,15.3-45,40.2-41.9c18,2.2,48.6,18.4,49,29.4c4.6,109.7,88.3,140.3,168.6,169.3
			c202,73.1,410.2,98.1,622.9,59.3c120.1-21.9,226.7-71.9,263.7-199.7c54.6-188.2,0.9-281.5-130-366.9
			c-114.4-74.6-237.5-136.2-358.3-200.6c-171.8-91.5-345.8-179.1-494.2-307.9c-132.4-115-206.5-260.6-219.3-434.9
			c-15.7-213.3,31.4-408.6,183.2-568c113.6-119.3,255.7-190.4,415.6-220.4c230.6-43.3,461.9-37,689.7,20.9
			c127.5,32.4,248.5,83.3,358.9,156.9c27.6,18.4,38.1,40.6,32.3,74.9c-24.7,145.5-47.5,291.4-70.1,437.2
			c-3.7,23.9-9.2,42.9-37.9,45.9c-26.4,2.7-46.5-3.3-56.2-30.7c-52.2-147.1-172.7-221.8-306.6-273.8
			c-154.7-60.1-316.4-72.1-477.7-23.5c-120.5,36.3-197,115.4-213.5,244.1c-15.2,118.2,24.6,216.4,127.4,275.7
			c141.5,81.6,289.1,152.7,433.7,229c156.4,82.6,315.7,160.6,448,281.7c195.8,179.2,282.7,396.4,243,663.5
			c-32.1,215.9-123.9,392.3-310.6,512.1c-144.8,92.9-307.1,134.4-475.9,152.6C7809.2,4484.6,7730.8,4487.4,7664.5,4491.9z"/>
		<path fill="#FFFFFF" d="M3221.8,4603.6c115.2,0,230.5-0.7,345.7,0.5c29.7,0.3,44.2-9.7,54-38.9c34.3-103.5,71.5-206,108.8-308.5
			c4.5-12.4,14.8-29.7,25.1-32c147.3-32,295.1-64.5,444.8-12.3c65.6,22.9,121.8,59.7,165.2,114.4c83.3,105.2,69.9,245.4-31.7,328.1
			c-47.9,39-101.5,53.6-161,30c-59.6-23.6-90.2-68.7-93.8-132.5c-0.6-10.2-3.7-20.3-4.9-30.6c-11.9-98.6-15.2-98-109.8-57.9
			c-248.4,105.2-467.8,256.7-672.7,430c-300.9,254.6-563.3,543.1-765.8,883c-87.2,146.4-158.4,299.8-190.2,468.8
			c-14.9,79.1-16,157.6,1.5,237.2c13.3,60.1,48.2,95.9,103.3,116c91.3,33.4,186.3,33.7,280.1,21.9
			c417.2-52.9,799.7-196.3,1141.6-444.2c18.4-13.3,64.1-23.1,67.5-17.4c20.5,35.2-4.1,64.1-27.9,88.6
			c-173,177.9-365.2,331.1-583,451c-153.4,84.4-315.2,144.2-487.8,178.3c-513.7,101.5-937.5-276.9-1033.5-572.9
			c-69-212.6-38.1-416.7,43.4-617.2c105.4-259.1,275.8-473.1,473.1-667.4c147.8-145.6,310-273.7,485.1-384.9
			c24.5-15.6,57.1-25.1,86.2-25.8c112.2-2.9,224.6-1.2,336.8-1.2C3221.8,4606.4,3221.8,4605,3221.8,4603.6z"/>
		<path fill="#FFFFFF" d="M5235.9,1081.7c-5.6,0-14.6-1.1-23.3,0.2c-16.7,2.6-33.1,6.5-49.7,9.9c5.3,19,5.9,41.4,16.7,56.4
			c29.5,40.6,75.3,50.4,122.1,48.7c103.1-3.8,188.8-42.8,247.6-131.3c11.4-17.2,21.2-38,37.3-48.7c13.2-8.8,36.3-10.2,52.1-5.5
			c20.4,6.1,27.2,22.7,14.3,45.7c-114.2,202.8-276.1,311.4-524.1,282.2c-192.5-22.6-256.6-150.2-240.1-313.1
			c18.5-182.1,139.6-317.9,315.5-363.2c86-22.2,172.7-18.2,255.8,17.5c119.7,51.5,132,233.1,21.9,323.4
			C5411.5,1061.8,5329.3,1084.4,5235.9,1081.7z M5166.2,961.1c68.9,13.6,134.3-26.9,154.3-93.2c4.8-15.8,3.5-44.7-5.9-50.8
			c-13.4-8.7-39.7-8.1-55.4-0.7C5200.5,844.4,5184.5,901.4,5166.2,961.1z"/>
		<path fill="#A68D56" d="M6911,3813.8c-11.5,23.4-19.8,33.2-21,43.7c-7.7,69.3-11.7,139-21.1,208c-9.7,71.1-25.2,141.3-36.2,212.2
			c-4,26,1.8,53.8-3.8,79.4c-12.5,57.9-11.6,123-70.7,160.4c-12.9,8.2-27.3,15.6-42.1,18.9c-15.6,3.5-32.3,2.2-48.5,2.2
			c-682.4,0.1-1364.7,0.2-2047.1-0.3c-22.7,0-52.7,10.4-59-28.5c-7.3-44.8,2.2-56.2,51.2-56.2c673.5,0,1347,0,2020.5,0
			c86.8,0,106.1-18,113.7-104.8c6.4-72.4,11.5-145.1,20.3-217.2c11.2-91.7,24-183.2,39.7-274.2c3.8-22.1,16.9-51.3,34.2-59.9
			C6856.6,3790.1,6883.9,3806.6,6911,3813.8z"/>
		<path fill="#A68D56" d="M8620.5,3285.9c71,43.5,94.4,104.1,123.9,160.2c27.1,51.4,36.7,105.9,35,164.1
			c-2.3,76.7-1.2,153.6-0.4,230.4c0.8,76.7-27.2,146-47.3,218.3c-38.2,137.1-128.3,235.7-232.1,318.8
			c-74.1,59.4-167.2,95.9-254,138.2c-41.1,20-87,30.6-131.3,43.6c-42.6,12.5-85.6,29.9-129.1,32.4c-165.4,9.2-331.2,20.1-496.5,16.6
			c-89.4-1.9-179-28-266.9-49.7c-94.7-23.3-187.6-53.7-281-82.2c-19.2-5.9-37.9-15.3-54.8-26.2c-34.1-21.9-31.2-55.8-0.2-84.3
			c92.6,30.1,180,63.3,270,86.5c96.2,24.8,196.1,35.4,292.1,60.7c125.5,33,253.2,23.6,376.9,11.5c130.4-12.8,260.8-38.8,387.7-84.9
			c145.9-53,262.6-139,358-255c40.8-49.6,67.1-113.4,90.9-174.3c20.1-51.4,30.4-107.4,38.9-162.3c9.8-63,15.4-126.9,18.1-190.6
			c5-115.8-31.1-221.7-85.3-322.5C8627,3324.1,8626.3,3309.9,8620.5,3285.9z"/>
		<path fill="#A68D56" d="M5195.8,4243.5c-24.6,9.5-55,35.4-87.4,2.5c-15.3-15.5-33.4-32.1-40.1-51.6
			c-22.8-66.4-39.9-134.7-61.3-201.7c-23.8-74.6-51.9-147.8-74.2-222.7c-17.2-57.7-27-117.7-42.7-175.9
			c-12.7-46.9-30-92.6-43.9-139.2c-17.9-60.1-33.8-120.8-51.7-180.9c-14.7-49.3-31.7-98-46.2-147.4c-17.8-60.3-34.2-121-50.9-181.6
			c-7.2-26.3-12.9-53.1-20.4-79.4c-25.5-89.4-50.3-179-77.7-267.8c-22.7-73.6-49.7-145.8-72.9-219.3
			c-15.5-49.3-26.7-99.9-41.3-149.4c-17.7-60.2-38.6-119.5-55.2-179.9c-16-58.1-27.7-117.4-42.4-175.9
			c-5.5-21.7-14.1-42.6-21.4-63.9c64.7-21.1,105.4-11.5,106.2,62.9c0.3,24.9,12.9,49.8,20,74.6c25.6,89.1,50.2,178.4,77.3,267
			c22.5,73.7,50,146,71.7,220c22.9,78,40.3,157.6,62.3,235.9c15.8,56.2,35.8,111.2,52.6,167.2c15.7,52,28.8,104.8,44.5,156.8
			c23,76.3,47.7,152,70.7,228.2c15.7,52,29.1,104.7,44.6,156.7c17.5,58.7,36.8,116.9,54.2,175.6c15,50.7,27.5,102.2,42.8,152.8
			c23.5,77.8,48.8,155.1,72.7,232.9c14.3,46.4,25,94.1,41.7,139.7C5147.2,4133.8,5171.7,4186.4,5195.8,4243.5z"/>
		<path fill="#A68D56" d="M3783.2,3762.2c-22.3,71.1-45,135.9-62.7,202.1c-16.7,62.5-27.2,126.5-42.3,189.5
			c-13,54.2-28,107.9-43.2,161.6c-10.5,37.1-23.5,73.5-34,110.6c-17.4,61.6-48.9,114.4-126.7,113.8c-317.6-2.4-635.3-1.2-952.9-0.3
			c-35.3,0.1-50.1-10.6-49.9-48.2c0.2-38.5,21.8-37.7,49-37.7c299.9,0.4,599.8,0.2,899.8,0.2c89.8,0,104.4-17.2,117.6-106.9
			c8.9-60.3,29.4-119,44.8-178.3c10.5-40.2,21.1-80.3,31.9-120.4c17.8-66.1,35.7-132.1,53.8-198.1c13.3-48.4,25-97.4,41.5-144.8
			c4.2-12.1,23.4-26.9,35.8-27c183.2-1.8,366.4-0.9,549.6-1.5c34.1-0.1,40.7,17.3,41.6,47.4c1,34-15.6,38.6-43.5,38.5
			c-156.6-0.7-313.2-0.3-469.8-0.3C3809,3762.2,3794.6,3762.2,3783.2,3762.2z"/>
		<path fill="#A58C55" d="M2662.8,1803c32.4,0,56.9,0,90.8,0c5.9,48.2,10.5,96.7,18,144.8c10.4,66.8,22.9,133.2,34.5,199.9
			c0.5,2.9,0.8,5.9,1.1,8.8c7.3,82.4,12.5,165.1,22.7,247.2c7.8,62.7,22,124.6,33.3,186.9c0.5,2.9,1.1,5.8,1.3,8.8
			c7.5,81.1,13.1,162.4,23.1,243.2c8.8,71.4,22.6,142.3,34.2,213.4c0.5,2.9,1,5.8,1.3,8.7c7.4,78,12.8,156.3,22.7,233.9
			c8.8,68.6,22.8,136.6,34,204.9c1.7,10.1-0.1,20.7,1,31c7.7,76.6,15.1,153.2,23.6,229.7c11.4,102,28.4,203.6,33.3,305.9
			c1.9,40-9.1,87.8-54.6,120.9c-9.2-49.4-18.5-92.4-25.1-135.8c-13.9-91.2-26.3-182.7-39.3-274c-0.2-1.5-0.4-2.9-0.5-4.4
			c-6.6-69.5-11-139.3-20.3-208.5c-9.4-69.8-23.8-138.8-35.8-208.2c-1-5.8-0.8-11.7-1.3-17.6c-7-78.4-12.5-156.9-21.4-235
			c-11.7-103.3-26.3-206.3-39.3-309.5c-6.3-50.4-11.5-100.9-17.8-151.3c-13.2-104.8-26.8-209.5-40.1-314.2
			c-6.4-50.3-12.2-100.7-18.5-151.1c-13.1-104.6-25.6-209.3-39.9-313.8C2680.8,1847.1,2671,1827.7,2662.8,1803z"/>
		<path fill="#FFFFFF" d="M6284.5,1639c-148.8-13.7-282-78.8-372.6-217.8c-31.5-48.3-37-98.9-14.1-155.6
			c76.3-188.8,149.3-379,223-568.9c33.1-85.3,65-171.1,97-256.8c3.5-9.4,5.7-19.9,5.8-29.8c0.5-70.4,23.4-98.8,92.7-110
			c89.3-14.4,172.5,12.6,255.4,40c141.5,46.8,261.9,127.5,370,228.6c55.6,52,85.4,115.7,88.5,190.7c0.8,18.5-7.2,48.3-20.1,54.5
			c-54.9,26.3-79.3,78.1-111.7,122.4c-157.6,215.7-313.6,432.6-470.3,648.9C6395.8,1629.7,6347.2,1634.9,6284.5,1639z M6910.7,849.5
			c-276.3-41-498.9-161.2-674.6-373.9c-7.3,19-12.8,33.7-18.6,48.4c-85.1,217.2-166.5,436-257.1,650.9
			c-41.9,99.4-17.3,173.4,53.1,242.3c78.5,76.9,172.3,122.3,281.8,135.3c17.4,2.1,39.6,1.2,50.6,11.4c29.5,27.4,43,8.9,58.9-13.2
			c145.2-200.7,290.6-401.2,435.9-601.9C6863.6,917.5,6885.6,885.3,6910.7,849.5z M6876.8,792.9c1.2-3,2.4-6,3.6-9
			c11.6-1.8,23.3-3.1,34.8-5.5c61.9-13,78.2-38.9,47.7-93c-29.2-51.8-59.5-108.4-104-145.3c-126.2-104.7-270.5-180.1-433.8-207.9
			c-38-6.5-83.1,10-120.8,25.9c-32,13.5-25.2,50.3-12.5,74.5c18.2,34.6,40.1,69.8,68.3,96.3c78.9,73.9,165.7,139,266.3,179.9
			C6708,741.8,6793.3,765.2,6876.8,792.9z M5924.1,1341.9c-7.5,52.3,42.7,117.6,139,185.5c85,59.9,208.4,87,264.6,56.2
			C6153.6,1568.8,6015.4,1496.3,5924.1,1341.9z"/>
		<path fill="#FFFFFF" d="M2794.2,1641.3c-54.7,2-101.7-20.9-140.5-75.6c-162.1-228.8-327.8-455.1-493.3-681.5
			c-15.9-21.7-41.8-35.8-59.2-56.7c-14.1-16.9-34.8-41.4-31.2-57.7c12-53.4,20.7-115.8,54.1-154.7
			c147.4-171.8,338.6-273,561.7-309.8c40.9-6.8,85.3-0.1,126.9,7.3c35.6,6.4,65.8,33.1,63.8,70.1c-3.8,72.1,33,130.3,56.5,192.6
			c87.5,232,176.7,463.3,268.5,693.7c23.4,58.8,14.9,108.9-14.9,159.9C3117.3,1547.3,2944.1,1643.3,2794.2,1641.3z M2187.7,855.2
			c6.8,12.4,10.2,20.2,15,26.9c83.1,114.5,166.6,228.7,249.6,343.3c81.3,112.3,161.3,225.4,244.3,336.5
			c8.6,11.5,33.8,16.4,50.3,14.7c23.7-2.5,45.9-17.4,69.6-20.9c125.8-18.3,229.7-75.5,304.5-178c29.1-39.9,56.9-82.8,32.4-142.4
			c-67.2-163.6-128.4-329.7-192-494.8c-32.7-84.8-65.3-169.7-99.8-259.4C2684,694.9,2461.4,815.2,2187.7,855.2z M2215.2,789.2
			c30.7-5.2,64.8-8.1,97.3-16.9c157.8-43,298.7-119,417.2-231.3c34.7-32.9,58.1-79.8,79.6-123.7c14.6-29.8-5.2-54.2-35.4-65.4
			c-56.7-21.1-113.8-21.8-170.9,0c-46.7,17.8-95.4,31.4-140.2,53.2c-129,62.7-253.5,132.2-320.5,269.3c-7,14.4-14.4,29.1-18.5,44.5
			c-8.5,31.6,6.7,51.5,36.2,60.3C2176.9,784.1,2194.8,785.6,2215.2,789.2z M2770.9,1593c149.6,51.9,423.5-139.8,407.2-256.8
			C3091.6,1499.5,2948.5,1568.4,2770.9,1593z"/>
		<path fill="#A68D56" d="M8627.1,1972.3c25.9,18.8,55.8,29.7,57.3,43.6c4.6,44.7-0.6,90.6-3.6,135.9c-0.8,12.4-8.7,24.2-10.9,36.7
			c-13.6,78-26.3,156.3-39.9,234.3c-3.9,22.4-4.5,48.1-16.3,65.9c-16.5,24.8-38.7,50-64.4,63.9c-104.9,56.6-232.7-6-255.8-120.9
			c-2.9-14.5-13-29.5-23.8-40.2c-84.2-83.3-183.1-134.4-300.7-161c-79.8-18-158.1-18.3-235.3-11.2c-74.1,6.8-145.4,36.4-181.2,114.2
			c-23,50-2.2,195.6,34.4,238.4c9.6,11.3,14.4,26.7,25.8,48.7c-91.3-26.5-144.5-94.6-151.3-172.6c-6.5-73.7,2.9-143.6,42.6-206
			c31.1-48.8,85.4-69,136.5-88.8c97.5-37.8,200.5-25.4,300.4-18.1c58.5,4.3,114.3,37.3,172.8,50.8c91.7,21.2,157.3,79.5,216.9,145.5
			c22.1,24.5,34.5,58.4,48,89.5c14.3,33.1,30,67.7,111.4,60.4c43.1-3.9,53.8-25.6,58.2-65.8c6.6-61,25.1-120.7,34.3-181.5
			c9.8-64.5,13.6-129.9,22.4-194.6C8607.7,2018.7,8618.1,1998.7,8627.1,1972.3z"/>
		<path fill="#A68D56" d="M5904.3,2256.5c0,145.1-1.6,282.3,1,419.5c0.7,38-8.5,66.1-40.3,85.4c-10.3,6.2-23.7,11.5-34.7,10
			c-4.8-0.6-10.1-19.3-10.2-29.8c-0.8-91.6-0.4-183.2-0.4-274.8c0-85.7,1-171.4-0.6-257.1c-0.6-29.5,10.1-38.5,38.5-38.4
			c177.3,0.8,354.6-0.3,531.9,0.8c58.4,0.4,107.3,48.8,112.2,105.8c3.7,42,36.1,66.8,87.2,66.5c46.3-0.2,75.5-27.4,81.7-67.7
			c9-58.1,22.5-115.4,34.1-173.1c0.6-2.9,1.3-5.8,1.7-8.7c12.7-96.1,25.4-192.2,38.5-291.1c30.2,0,55.6,0,87.6,0
			c-11.9,69-23.3,135.2-34.9,201.4c-0.7,4.2-3.7,8.1-4.3,12.3c-7,55.9-13.5,111.9-20.7,167.8c-6.2,48.8-11.6,97.9-20.3,146.3
			c-5.8,32-88.7,96.1-121.4,97.1c-22.1,0.7-44.3,0.8-66.5,0.5c-71.1-0.9-132.3-58.2-146.4-129.5c-3.2-16.4-25.5-41.2-39.4-41.5
			C6222.5,2255.4,6066.2,2256.5,5904.3,2256.5z"/>
		<path fill="#A68D56" d="M5904.2,3336c0,23,0,39.1,0,55.1c0,168.3-0.4,336.7,0.4,505c0.2,29.7-8.4,42.9-40.5,41.8
			c-29.5-1-45.6-5.2-45.3-41.4c1.7-196.4,2.1-392.8-0.2-589.2c-0.5-43,11.8-56,54.5-55.6c184.6,1.9,369.2,1.7,553.7-0.1
			c27.9-0.3,56.4-11.2,83-21.4c10.4-4,21.3-18.5,23.5-29.8c8.4-42.4,13-85.5,19.6-128.2c12.5-81.3,23-163,39.3-243.5
			c7.1-35,42.2-22.4,63.1-16.2c9.8,2.9,18.3,29.7,17.4,45.1c-2.1,34.2-10,68.1-16.5,101.9c-11.1,57.8-23.9,115.3-34,173.2
			c-4.3,24.5-3.2,49.9-5.1,74.8c-4,54.9-52.2,102.9-103.5,112.5c-181.3,34-364.1,7.1-546,15.8C5949,3336.8,5930,3336,5904.2,3336z"
			/>
		<path fill="#A58C55" d="M1284.8,1802.5c36.8,0,60,0,89.4,0c26.4,83.7,52.4,169.6,80.8,254.8c22.2,66.5,48.7,131.6,71.1,198
			c22.4,66.3,41.3,133.7,63.1,200.2c22.2,67.8,46.6,134.8,68.8,202.5c15.5,47.3,38.4,94.8,40.5,143c1.6,36-24.8,73.1-38.7,109.8
			c-4.3,0-8.6,0-12.8,0.1C1527.1,2544.1,1407.2,2177.2,1284.8,1802.5z"/>
		<path fill="#A68D56" d="M2221.3,2832c29.7,65.3,40.2,130.6,11,202.2c-25.2,61.8-41,127.5-64.2,190.2
			c-18.4,49.8-43.3,97.1-62.7,146.6c-25,63.7-47.1,128.6-70.9,192.8c-10.9,29.3-23.1,58.1-34.2,87.3
			c-27.5,72.1-54.3,144.5-82.6,216.3c-4.5,11.4-15,28.1-23.8,28.8c-23.9,1.8-48.3-3.7-72.5-6.3c3.8-14.1,6.5-28.6,11.6-42.3
			c33.3-89.7,66-179.8,101.2-268.8c28.4-71.8,61.8-141.6,89.4-213.6c17.8-46.6,27.9-96.1,44-143.4c13.8-40.6,32.2-79.6,46.9-119.9
			c17.5-48.2,33.2-97.1,49.8-145.7c14.5-42.3,29.3-84.5,44-126.7C2212.6,2830.2,2216.9,2831.1,2221.3,2832z"/>
		<path fill="#FFFFFF" d="M4876.9,616.6c8.4,50.1,23,100.2,24.1,150.5c3.6,166-16.6,327.1-122,465.2
			c-122.6,160.6-298.7,203.7-481.5,158.6c-6.5-1.6-12.1-6.7-24.2-13.7c55.4-2.8,104.2-2,152-8.2c217.9-28.5,340.5-166.6,406-364
			c37.1-111.6,49.2-227.4,30.2-345.1c-2.2-13.6-0.3-27.8-0.3-41.7C4866.5,617.7,4871.7,617.1,4876.9,616.6z"/>
		<path fill="#FFFFFF" d="M4456,544.8c-5.7,14.2-10,23.5-13.3,33.2c-56.8,162.1-113.6,324.3-170.3,486.4
			c-6.3,18.1-10,37.6-19.6,53.7c-4.8,8-24.8,16.4-29.8,12.9c-11-7.7-26.4-26-23.5-34.4c62.6-182,127.3-363.2,191.9-544.5
			c2.9-8.2,6.4-18.5,12.9-22.6c8.7-5.5,22-10.2,30.8-7.3C4443.9,525,4449.6,537.4,4456,544.8z"/>
		<path fill="#FFFFFF" d="M5113.3,1379.1c66.8-5.3,133.4-5.7,198.1-16.8c145.3-24.9,250.8-111.1,332.2-230.1
			c8.3-12.2,13.5-27.7,24.3-36.6c11.1-9.1,27.4-12.1,41.4-17.7c2.7,15.1,12.7,34.4,6.8,44.7c-67.4,118.3-155.1,215.7-289.7,258.5
			c-95.8,30.4-193.3,39.2-291.7,11c-5.6-1.6-11.2-3.5-16.4-6.1C5116.3,1385,5115.2,1381.8,5113.3,1379.1z"/>
		<path fill="#FFFFFF" d="M3830.3,821.4c43.1-25.2,79.4-44,112.9-66.8c31.7-21.6,42.7-51,33.2-91.9
			c-30.7-132.5,92.7-267,213.7-244.7c-47.1,43-99.3,86.8-146.7,135.2c-40.6,41.4-50.9,94.2-39.6,151.5
			c15.2,77-64.5,153.9-140.3,135.3C3853.2,837.4,3844.2,829.3,3830.3,821.4z"/>
		<path fill="#FFFFFF" d="M5204.9,1126.1c196.3-16.6,365.9-61,390.8-299.6c42.3,50,34,118.5-11.7,147.3
			c-12.9,8.1-23.5,22.1-31.4,35.6c-88,149.5-162.9,140.9-320.3,133C5222.9,1142,5214,1131.8,5204.9,1126.1z"/>
		<path fill="#FFFFFF" d="M3693.6,1378.3c78.4-6.8,157.3-10.1,234.9-22.1c36.5-5.6,70.3-28.2,105.4-42.8c25-10.3,51-43.1,74.7-5.9
			c3.8,5.9-27.4,42.8-48.5,54.4c-71.4,39.6-149.7,53.4-230.9,43.9c-46.8-5.5-93-15.4-139.5-23.3
			C3691.1,1381.1,3692.3,1379.7,3693.6,1378.3z"/>
		<path fill="#A68D56" d="M4004.8,2555.7c55.4,41.8,70.7,110.3,47.3,166.5c-12,28.9-18.1,60.4-25.4,91
			c-20.2,85.1-39.4,170.4-59.4,255.5c-5.6,23.7-10.9,47.6-19.8,70.1c-3.9,9.8-15.4,17.9-25.3,23.6c-8.4,4.8-19.4,5.2-29.4,7.3
			c-13.1,2.7-26.2,5.1-39.3,7.6c2.4-14.1,4.1-28.4,7.4-42.3c7-29.2,15.3-58.1,22.3-87.4c20.4-85,39-170.4,61.3-254.9
			c14.5-55,35.6-108.2,51.2-162.9C4001.9,2608.3,4001.5,2584.7,4004.8,2555.7z"/>
		<path fill="#FFFFFF" d="M5292.2,839.9c-4.8,50.9-34.5,73.1-72,90.8C5216.3,889.7,5238.5,860.4,5292.2,839.9z"/>
	</g>
</g>
<g>
</g>
<g>
</g>
<g>
</g>
<g>
</g>
<g>
</g>
<g>
</g>
</svg>
